<?xml version="1.0" standalone="no"?>
<!DOCTYPE svg PUBLIC "-//W3C//DTD SVG 20010904//EN"
 "http://www.w3.org/TR/2001/REC-SVG-20010904/DTD/svg10.dtd">
<svg version="1.0" xmlns="http://www.w3.org/2000/svg"
 width="1143.000000pt" height="1143.000000pt" viewBox="0 0 1143.000000 1143.000000"
 preserveAspectRatio="xMidYMid meet">
<metadata>
Created by potrace 1.14, written by Peter Selinger 2001-2017
</metadata>
<g transform="translate(0.000000,1143.000000) scale(0.100000,-0.100000)"
fill="#000000" stroke="none">
<path d="M4820 9817 c-3 -3 -41 -7 -85 -11 -44 -3 -96 -8 -115 -11 -87 -11
-136 -18 -150 -20 -8 -2 -55 -10 -105 -19 -49 -10 -157 -35 -240 -56 -645
-168 -1200 -480 -1686 -947 -65 -62 -75 -68 -174 -105 -119 -44 -344 -143
-473 -208 -452 -227 -783 -459 -1083 -759 -192 -193 -321 -356 -437 -556 -39
-67 -132 -263 -132 -277 0 -8 -4 -18 -9 -24 -21 -23 -90 -271 -106 -384 -4
-25 -11 -70 -15 -100 -9 -60 -5 -390 4 -430 3 -14 8 -38 10 -55 47 -327 226
-704 483 -1021 140 -173 333 -358 528 -508 55 -43 108 -84 118 -92 9 -8 20
-14 23 -14 3 0 23 -13 44 -30 21 -16 41 -30 46 -30 4 0 17 -8 28 -19 65 -58
514 -300 741 -399 76 -33 107 -52 128 -80 87 -113 286 -317 457 -467 177 -156
461 -347 710 -478 376 -197 868 -352 1250 -393 25 -3 56 -7 70 -10 180 -33
693 -24 950 16 36 6 79 13 95 15 17 2 40 6 51 9 12 2 37 7 55 10 62 11 233 54
359 90 184 54 541 201 670 276 8 5 53 30 100 57 177 98 388 244 540 372 114
97 133 114 264 244 l128 129 30 -29 c17 -15 54 -50 82 -77 268 -255 745 -620
1236 -945 118 -79 234 -156 258 -172 23 -16 45 -29 47 -29 2 0 35 -20 72 -44
158 -101 502 -296 693 -391 335 -168 501 -225 665 -230 153 -4 271 40 361 137
94 100 135 250 109 393 -10 56 -67 177 -112 238 -113 155 -342 373 -653 621
-74 59 -142 112 -150 119 -158 126 -875 624 -951 660 -8 4 -41 25 -74 47 -33
21 -89 56 -124 77 -35 21 -79 47 -97 58 -19 11 -96 55 -171 99 -76 43 -148 85
-161 93 -23 14 -22 15 50 65 148 104 316 246 449 378 161 161 183 186 281 315
247 328 397 688 434 1050 10 92 11 290 3 340 -4 22 -10 67 -13 100 -4 33 -9
67 -11 75 -2 8 -6 26 -9 40 -15 85 -65 249 -104 345 -38 93 -146 294 -207 386
-189 284 -445 545 -760 776 -55 40 -104 77 -110 81 -5 4 -53 35 -105 68 -295
188 -625 353 -957 479 -119 45 -137 58 -263 186 -80 82 -339 279 -505 386
-354 227 -792 412 -1180 499 -44 10 -82 19 -85 19 -3 1 -27 5 -55 10 -27 5
-52 10 -55 10 -3 1 -30 5 -60 9 -30 5 -64 10 -75 12 -11 2 -47 7 -80 10 -33 3
-71 8 -85 11 -30 6 -594 16 -600 10z m490 -1362 c151 -12 263 -29 364 -56 23
-6 48 -12 56 -14 28 -5 105 -26 120 -32 8 -3 20 -7 25 -8 32 -7 253 -99 322
-134 337 -169 575 -363 848 -692 116 -139 298 -473 369 -677 43 -125 97 -336
111 -437 22 -158 27 -219 28 -348 1 -140 -8 -319 -18 -349 -2 -7 -6 -33 -9
-58 -27 -220 -128 -532 -242 -745 -350 -659 -920 -1099 -1638 -1265 -110 -25
-257 -34 -576 -34 -308 0 -368 5 -525 44 -346 85 -653 234 -933 453 -112 87
-291 258 -357 342 -22 28 -43 52 -46 55 -3 3 -31 39 -61 80 -179 244 -318 540
-398 850 -26 99 -58 298 -66 410 -12 174 -6 388 16 520 5 30 11 71 14 91 3 20
8 42 10 50 3 8 7 30 10 49 8 58 72 269 111 365 107 269 300 577 476 760 26 28
61 64 76 80 16 17 62 59 103 95 41 36 77 68 80 71 22 25 222 162 325 220 260
150 592 265 850 295 22 3 46 7 53 9 8 3 62 8 120 11 59 4 108 7 109 8 4 3 202
-3 273 -9z m3094 -555 c24 0 346 -218 477 -324 101 -80 284 -254 360 -341 192
-219 362 -528 410 -745 4 -19 10 -46 13 -60 3 -13 8 -42 11 -65 3 -22 8 -52
11 -67 8 -40 7 -235 -1 -298 -4 -30 -8 -64 -10 -75 -8 -73 -47 -207 -93 -319
-118 -296 -340 -584 -647 -841 -44 -37 -90 -76 -103 -86 -29 -25 -246 -175
-280 -194 -15 -9 -42 -25 -60 -35 -18 -11 -31 -17 -29 -13 13 22 64 140 99
228 109 273 198 611 234 890 3 27 8 61 10 75 13 102 19 235 19 420 0 194 -11
425 -20 441 -2 3 -7 34 -11 70 -23 229 -120 601 -231 884 -51 130 -177 396
-225 474 l-21 33 41 -26 c23 -14 43 -26 46 -26z m-6668 -92 c-36 -68 -81 -161
-101 -208 -20 -47 -43 -98 -50 -115 -7 -16 -21 -50 -30 -75 -9 -25 -21 -54
-25 -65 -54 -127 -154 -512 -176 -674 -3 -25 -8 -48 -9 -52 -2 -3 -7 -39 -11
-80 -3 -40 -8 -77 -10 -80 -7 -12 -18 -251 -18 -394 0 -139 9 -329 19 -400 2
-16 6 -55 9 -85 15 -153 89 -485 153 -685 32 -100 127 -344 160 -408 l24 -48
-23 12 c-34 18 -193 125 -278 188 -476 349 -792 783 -886 1216 -31 140 -38
335 -18 479 73 525 434 1013 1059 1431 86 57 176 114 201 127 25 12 48 26 50
30 3 4 9 8 15 8 5 0 -20 -55 -55 -122z"/>
<path d="M4950 6864 c-72 -12 -96 -20 -180 -57 -152 -67 -290 -206 -363 -367
-71 -159 -78 -373 -17 -539 22 -61 80 -166 110 -201 12 -14 30 -34 39 -45 21
-26 126 -115 136 -115 4 0 18 -9 31 -19 31 -24 139 -66 220 -85 37 -8 102 -13
160 -11 128 3 159 9 274 58 208 87 360 268 419 497 28 111 22 277 -14 385 -38
116 -88 199 -171 290 -26 28 -120 105 -129 105 -4 0 -19 8 -33 18 -31 21 -152
74 -152 66 0 -2 -8 0 -17 5 -47 24 -209 32 -313 15z"/>
</g>
</svg>
